<?xml version="1.0" standalone="no"?>
<!DOCTYPE svg PUBLIC "-//W3C//DTD SVG 20010904//EN"
 "http://www.w3.org/TR/2001/REC-SVG-20010904/DTD/svg10.dtd">
<svg version="1.0" xmlns="http://www.w3.org/2000/svg"
 width="142.000000pt" height="134.000000pt" viewBox="0 0 142.000000 134.000000"
 preserveAspectRatio="xMidYMid meet">

<g transform="translate(0.000000,134.000000) scale(0.100000,-0.100000)"
fill="#000000" stroke="none">
<path d="M768 1013 l-3 -108 -292 -3 -293 -2 0 -220 0 -220 293 -2 292 -3 5
-107 5 -106 225 218 225 218 -20 22 c-11 12 -113 112 -227 222 l-207 200 -3
-109z m372 -278 l55 -57 -200 -194 -200 -194 -3 95 -3 95 -289 0 -290 0 0 200
0 200 290 0 290 0 0 96 0 96 148 -140 c81 -77 172 -166 202 -197z"/>
</g>
</svg>
