<?xml version="1.0" standalone="no"?>
<!DOCTYPE svg PUBLIC "-//W3C//DTD SVG 20010904//EN"
 "http://www.w3.org/TR/2001/REC-SVG-20010904/DTD/svg10.dtd">
<svg version="1.0" xmlns="http://www.w3.org/2000/svg"
 width="136.000000pt" height="152.000000pt" viewBox="0 0 136.000000 152.000000"
 preserveAspectRatio="xMidYMid meet">

<g transform="translate(0.000000,152.000000) scale(0.100000,-0.100000)"
fill="#000000" stroke="none">
<path d="M540 1216 c-207 -58 -360 -263 -360 -481 1 -344 323 -586 630 -473
163 61 285 219 312 403 26 186 -62 387 -215 486 -111 72 -252 97 -367 65z
m202 -27 c118 -25 245 -125 303 -238 37 -74 58 -181 51 -257 -38 -387 -465
-566 -735 -309 -335 319 -61 896 381 804z"/>
</g>
</svg>
